<?xml version="1.0" standalone="no"?>
<!DOCTYPE svg PUBLIC "-//W3C//DTD SVG 20010904//EN"
 "http://www.w3.org/TR/2001/REC-SVG-20010904/DTD/svg10.dtd">
<svg version="1.0" xmlns="http://www.w3.org/2000/svg"
 width="486.000000pt" height="486.000000pt" viewBox="0 0 486.000000 486.000000"
 preserveAspectRatio="xMidYMid meet">
<metadata>
Created by potrace 1.14, written by Peter Selinger 2001-2017
</metadata>
<g transform="translate(0.000000,486.000000) scale(0.100000,-0.100000)"
fill="#000000" stroke="none">
<path d="M2235 4648 c-93 -16 -240 -50 -270 -63 -81 -35 -109 -45 -132 -45
-13 0 -22 -4 -18 -9 7 -12 -26 -31 -54 -31 -11 0 -29 -12 -40 -26 -12 -15 -21
-24 -21 -21 0 11 -150 -83 -150 -94 0 -5 -102 -118 -177 -195 -24 -24 -43 -46
-43 -48 0 -2 -21 -40 -47 -83 -72 -121 -120 -230 -149 -339 -21 -82 -27 -129
-31 -270 -5 -152 -3 -182 17 -275 12 -57 36 -142 52 -188 16 -45 27 -85 24
-88 -3 -3 6 -19 19 -35 14 -16 23 -34 19 -39 -3 -5 -2 -9 3 -9 4 0 19 -17 33
-38 14 -20 46 -65 72 -99 27 -34 48 -67 48 -73 0 -5 3 -10 8 -10 4 0 34 -27
67 -60 33 -33 65 -60 71 -60 7 0 14 -7 18 -15 3 -8 12 -15 21 -15 8 0 15 -5
15 -10 0 -6 8 -13 18 -17 9 -3 24 -12 32 -19 8 -7 53 -32 100 -56 l85 -44 12
-69 c7 -38 11 -70 9 -73 -4 -3 -39 -13 -104 -29 -24 -6 -70 -41 -111 -85 -14
-16 -33 -28 -43 -28 -12 0 -18 -8 -18 -24 0 -13 -3 -26 -7 -28 -17 -7 -62
-117 -78 -188 -16 -73 -16 -109 1 -300 3 -30 6 -73 8 -95 1 -22 14 -65 28 -95
13 -30 30 -71 38 -90 7 -19 18 -39 23 -45 7 -7 8 -6 3 3 -4 6 -3 12 3 12 9 0
22 -27 27 -58 1 -8 9 -21 17 -30 9 -10 19 -30 22 -45 4 -15 10 -25 13 -22 8 8
42 -26 42 -42 0 -7 5 -13 11 -13 6 0 9 -6 6 -13 -5 -14 65 -97 83 -97 5 0 10
-6 10 -13 0 -7 9 -20 20 -30 12 -10 18 -23 14 -29 -4 -6 -3 -8 3 -5 6 4 28 -7
48 -23 21 -17 32 -30 24 -30 -8 -1 1 -7 19 -15 22 -10 32 -21 32 -37 0 -13 7
-32 15 -42 19 -25 19 -46 1 -46 -7 0 -22 -12 -31 -27 -18 -26 -17 -27 9 -48
18 -14 26 -30 26 -52 0 -41 -9 -63 -25 -63 -8 0 -11 -8 -8 -20 3 -11 11 -20
19 -20 7 0 23 -13 36 -30 12 -16 27 -30 33 -30 14 0 57 -45 50 -52 -3 -2 8 -4
24 -3 26 2 90 -33 66 -36 -11 -1 -53 -4 -185 -14 -120 -9 -161 -13 -190 -21
-14 -3 -35 -7 -47 -8 -12 0 -19 -4 -15 -8 7 -7 36 -13 147 -29 84 -13 605 -18
725 -7 47 5 110 9 140 11 30 1 61 6 68 10 6 5 16 6 20 3 5 -3 9 1 9 9 0 8 -2
13 -5 11 -2 -3 -15 -1 -29 5 -31 12 -90 18 -238 25 -123 7 -145 11 -108 20 12
3 24 12 27 19 2 7 18 16 35 20 17 4 31 11 31 16 0 5 8 9 18 9 10 0 24 9 31 19
8 11 20 17 26 15 7 -3 15 5 18 16 3 12 10 20 15 17 4 -4 16 3 26 15 16 18 16
24 5 45 -8 16 -19 23 -31 20 -14 -4 -17 1 -16 30 1 22 7 37 17 41 24 8 56 44
57 64 1 10 -5 23 -12 29 -9 7 -14 33 -14 70 0 54 2 59 22 59 12 0 19 3 15 6
-9 10 30 47 42 39 7 -3 10 -3 9 2 -1 4 19 29 44 54 26 26 45 49 42 51 -2 3 7
15 21 28 14 13 25 31 25 41 0 10 10 25 22 33 12 9 19 16 14 16 -5 0 -2 8 6 18
9 9 23 33 31 52 14 35 62 90 78 90 5 0 6 7 3 15 -4 8 -1 15 5 15 6 0 11 9 11
20 0 11 5 20 11 20 7 0 9 9 5 24 -3 13 -2 26 2 28 19 7 53 185 59 309 6 127
-8 262 -29 275 -4 3 -8 16 -8 30 0 14 -7 36 -16 49 -9 14 -14 32 -10 40 4 11
0 15 -12 13 -13 -2 -16 3 -14 25 3 26 -13 52 -31 54 -5 1 -26 17 -47 36 -21
19 -49 37 -62 40 -110 27 -118 31 -100 49 7 7 12 24 12 39 0 49 19 84 52 97
17 6 35 9 39 6 5 -3 9 1 9 9 0 7 30 27 68 44 37 17 83 44 102 62 19 17 38 31
41 31 4 0 36 29 71 65 36 36 70 65 77 65 6 0 11 9 11 19 0 10 15 32 33 48 17
16 38 41 46 55 8 15 17 26 20 23 4 -2 13 11 21 28 7 18 18 35 24 39 6 4 11 12
11 17 0 5 10 21 23 36 13 15 21 29 18 32 -3 3 5 26 18 52 13 25 34 75 46 111
13 36 26 67 29 70 4 3 7 16 7 30 1 14 7 70 14 125 15 125 14 295 -2 320 -3 6
-11 37 -17 70 -16 86 -37 150 -49 148 -6 -1 -17 16 -26 38 -22 54 -19 63 5 14
10 -22 16 -29 13 -15 -9 37 -86 190 -95 190 -5 0 -9 9 -9 20 0 11 -11 27 -25
36 -14 9 -24 19 -21 21 2 3 -15 25 -37 49 -23 25 -42 50 -42 55 0 5 -5 13 -11
17 -6 4 -16 17 -23 29 -6 13 -17 22 -24 20 -7 -1 -11 3 -10 10 2 6 -6 15 -17
18 -11 4 -20 10 -20 14 0 15 -36 48 -95 87 -33 21 -62 39 -65 39 -19 2 -49 28
-44 38 4 7 4 9 -1 5 -12 -11 -66 15 -104 50 -21 19 -43 30 -60 29 -14 -1 -42
6 -61 15 -49 23 -131 48 -155 47 -31 -1 -145 25 -145 33 0 9 -212 6 -275 -4z"/>
<path d="M3115 4440 c3 -5 8 -10 11 -10 2 0 4 5 4 10 0 6 -5 10 -11 10 -5 0
-7 -4 -4 -10z"/>
<path d="M3260 4329 c0 -5 5 -7 10 -4 6 3 10 8 10 11 0 2 -4 4 -10 4 -5 0 -10
-5 -10 -11z"/>
<path d="M2908 2263 c7 -3 16 -2 19 1 4 3 -2 6 -13 5 -11 0 -14 -3 -6 -6z"/>
</g>
</svg>
